<svg width="90" height="129" viewBox="0 0 90 129" fill="none" xmlns="http://www.w3.org/2000/svg">
<path d="M44.9987 128.57C20.1869 128.57 0 108.309 0 83.4066V64.1372C0 63.8398 0.2403 63.5985 0.536384 63.5985C0.832467 63.5985 1.07277 63.8398 1.07277 64.1372V83.4066C1.07277 107.716 20.7782 127.495 44.9996 127.495C54.2185 127.495 63.0315 124.644 70.4851 119.255C82.0349 110.972 88.9272 97.5729 88.9272 83.4066V64.1372C88.9272 63.8398 89.1675 63.5985 89.4636 63.5985C89.7597 63.5985 90 63.8398 90 64.1372V83.4066C90 97.9203 82.9386 111.647 71.1107 120.128C63.4752 125.651 54.4459 128.569 45.0004 128.569L44.9987 128.57Z" fill="#F0F0F0"/>
<path d="M45.0004 0C69.8131 0 89.9992 20.2597 89.9992 45.1631V64.4325C89.9992 64.7298 89.7589 64.9711 89.4628 64.9711C89.1667 64.9711 88.9264 64.7298 88.9264 64.4325V45.1631C88.9264 20.8535 69.2209 1.07474 44.9996 1.07474C35.7806 1.07474 26.9676 3.92576 19.5141 9.31496C7.96594 17.5974 1.07277 30.9967 1.07277 45.1631V64.4325C1.07277 64.7298 0.832467 64.9711 0.536384 64.9711C0.2403 64.9711 0 64.7298 0 64.4325V45.1631C0 30.6494 7.06138 16.9226 18.8893 8.44104C26.5248 2.91825 35.5549 0 45.0004 0Z" fill="#F0F0F0"/>
<path d="M40.384 54.394C40.088 54.394 39.8477 54.1535 39.8477 53.8571V50.8949C39.8477 50.5975 40.088 50.3579 40.384 50.3579C40.6801 50.3579 40.9204 50.5984 40.9204 50.8949V53.8571C40.9204 54.1544 40.681 54.394 40.384 54.394Z" fill="#F0F0F0"/>
<path d="M43.4426 54.4472C43.1465 54.4472 42.9062 54.2068 42.9062 53.9103V50.9481C42.9062 50.6516 43.1465 50.4111 43.4426 50.4111C43.7387 50.4111 43.979 50.6516 43.979 50.9481V53.9103C43.979 54.2068 43.7387 54.4472 43.4426 54.4472Z" fill="#F0F0F0"/>
<path d="M46.5012 54.5008C46.2051 54.5008 45.9648 54.2603 45.9648 53.9638V51.0042C45.9648 50.7069 46.2051 50.4673 46.5012 50.4673C46.7973 50.4673 47.0376 50.7069 47.0376 51.0042V53.9638C47.0376 54.2612 46.7982 54.5008 46.5012 54.5008Z" fill="#F0F0F0"/>
<path d="M49.509 54.5559C49.213 54.5559 48.9727 54.3154 48.9727 54.0181V51.055C48.9727 50.7585 49.2121 50.5181 49.509 50.5181C49.806 50.5181 50.0454 50.7585 50.0454 51.055V54.0181C50.0454 54.3154 49.8051 54.5559 49.509 54.5559Z" fill="#F0F0F0"/>
<path d="M68.6454 58.4825H21.2317C20.9356 58.4825 20.6953 58.2429 20.6953 57.9447V46.9647C20.6953 46.6673 20.9348 46.4277 21.2317 46.4277H68.6463C68.9424 46.4277 69.1827 46.6682 69.1827 46.9647V57.9447C69.1827 58.2429 68.9424 58.4825 68.6463 58.4825H68.6454ZM21.7672 57.4061H68.109V47.5025H21.7681V57.4061H21.7672Z" fill="#F0F0F0"/>
<path d="M57.4974 47.5032H32.4504C32.1544 47.5032 31.9141 47.2628 31.9141 46.9646V44.2204C31.9141 43.9231 32.1544 43.6826 32.4504 43.6826H57.4974C57.7935 43.6826 58.0329 43.9231 58.0329 44.2204V46.9646C58.0329 47.2619 57.7935 47.5032 57.4974 47.5032ZM32.986 46.4276H56.961V44.7582H32.986V46.4276Z" fill="#F0F0F0"/>
<path d="M50.2016 44.7587H39.7434C39.4473 44.7587 39.207 44.5183 39.207 44.2218V41.4768C39.207 41.1794 39.4473 40.939 39.7434 40.939H50.2016C50.4977 40.939 50.738 41.1794 50.738 41.4768V44.2218C50.738 44.5191 50.4977 44.7587 50.2016 44.7587ZM40.2789 43.684H49.6652V42.0137H40.2789V43.684Z" fill="#F0F0F0"/>
<path d="M73.7475 63.2747H16.1965C15.9005 63.2747 15.6602 63.0352 15.6602 62.737V57.9459C15.6602 57.6485 15.8996 57.4072 16.1965 57.4072H73.7475C74.0436 57.4072 74.2839 57.6485 74.2839 57.9459V62.737C74.2839 63.0352 74.0436 63.2747 73.7475 63.2747ZM16.7321 62.2H73.2111V58.4845H16.7321V62.2Z" fill="#F0F0F0"/>
<path d="M75.3508 69.682H14.5833C14.2872 69.682 14.0469 69.4415 14.0469 69.1442V62.7371C14.0469 62.4398 14.2872 62.2002 14.5833 62.2002H75.3517C75.6477 62.2002 75.888 62.4407 75.888 62.7371V69.1442C75.888 69.4415 75.6486 69.682 75.3517 69.682H75.3508ZM15.1188 68.6072H74.8153V63.2758H15.1188V68.6072Z" fill="#F0F0F0"/>
<path d="M77.1339 71.7281H12.8246C12.6666 71.7281 12.4633 71.6583 12.3611 71.5376L10.6456 69.4907C10.5108 69.3295 10.4816 69.1063 10.57 68.9158C10.6576 68.7262 10.8472 68.6064 11.0558 68.6064H78.6367C78.8392 68.6064 79.0503 68.7185 79.1413 68.9021C79.2323 69.0822 79.2417 69.2994 79.1216 69.464L77.6197 71.51C77.5184 71.6462 77.3056 71.7281 77.1348 71.7281H77.1339ZM13.0211 70.6534H76.9168L77.6291 69.682H12.2084L13.0211 70.6534Z" fill="#F0F0F0"/>
<path d="M74.6555 75.6566H13.8871C13.591 75.6566 13.3516 75.4152 13.3516 75.1196V71.2439C13.3516 70.9457 13.591 70.7061 13.8871 70.7061H74.6555C74.9516 70.7061 75.191 70.9457 75.191 71.2439V75.1196C75.191 75.4161 74.9516 75.6566 74.6555 75.6566ZM14.4235 74.5818H74.1191V71.7808H14.4235V74.5818Z" fill="#F0F0F0"/>
<path d="M31.0505 126.201C30.7544 126.201 30.5141 125.96 30.5141 125.663V75.6533H14.4235V115.004C14.4235 115.301 14.1832 115.543 13.8871 115.543C13.591 115.543 13.3516 115.301 13.3516 115.004V75.1164C13.3516 74.8182 13.591 74.5786 13.8871 74.5786H31.0505C31.3466 74.5786 31.5869 74.8182 31.5869 75.1164V125.663C31.5869 125.96 31.3466 126.201 31.0505 126.201Z" fill="#F0F0F0"/>
<path d="M57.6419 126.685H57.641C57.3449 126.685 57.1046 126.443 57.1055 126.146L57.2127 75.1138C57.2136 74.8182 57.4539 74.5786 57.7491 74.5786H74.9125C75.055 74.5786 75.1915 74.6338 75.2927 74.7355C75.3931 74.8372 75.4489 74.9733 75.4489 75.1173L75.3417 116.461C75.3408 116.758 75.1005 116.998 74.8053 116.998H74.8036C74.5083 116.998 74.268 116.755 74.2689 116.458L74.3753 75.6533H58.2838L58.1774 126.148C58.1765 126.443 57.9362 126.684 57.641 126.684L57.6419 126.685Z" fill="#F0F0F0"/>
<path d="M22.4794 84.1089C20.4686 84.1089 18.832 82.4688 18.832 80.4495C18.832 78.4302 20.4686 76.79 22.4794 76.79C24.4902 76.79 26.126 78.4302 26.126 80.4495C26.126 82.4688 24.4894 84.1089 22.4794 84.1089ZM22.4794 77.8648C21.0591 77.8648 19.9039 79.0257 19.9039 80.4495C19.9039 81.8733 21.0591 83.0342 22.4794 83.0342C23.8998 83.0342 25.0541 81.8733 25.0541 80.4495C25.0541 79.0257 23.8989 77.8648 22.4794 77.8648Z" fill="#F0F0F0"/>
<path d="M67.0333 84.1089C65.0225 84.1089 63.3867 82.4688 63.3867 80.4495C63.3867 78.4302 65.0233 76.79 67.0333 76.79C69.0432 76.79 70.6807 78.4302 70.6807 80.4495C70.6807 82.4688 69.0449 84.1089 67.0333 84.1089ZM67.0333 77.8648C65.6146 77.8648 64.4595 79.0257 64.4595 80.4495C64.4595 81.8733 65.6146 83.0342 67.0333 83.0342C68.4519 83.0342 69.6088 81.8733 69.6088 80.4495C69.6088 79.0257 68.4536 77.8648 67.0333 77.8648Z" fill="#F0F0F0"/>
<path d="M53.6974 55.6862H36.2122C35.9161 55.6862 35.6758 55.4466 35.6758 55.1493V49.7644C35.6758 49.467 35.9161 49.2266 36.2122 49.2266H53.6974C53.9935 49.2266 54.2338 49.467 54.2338 49.7644V55.1493C54.2338 55.4466 53.9935 55.6862 53.6974 55.6862ZM36.7485 54.6115H53.1619V50.3013H36.7485V54.6115Z" fill="#F0F0F0"/>
<path d="M31.3193 55.4172C29.6638 55.4172 28.3164 54.0899 28.3164 52.4567C28.3164 50.8235 29.6638 49.4971 31.3193 49.4971C32.9748 49.4971 34.2698 50.8235 34.2698 52.4567C34.2698 54.0899 32.9465 55.4172 31.3193 55.4172ZM31.3193 50.5727C30.2551 50.5727 29.3892 51.4182 29.3892 52.4567C29.3892 53.4952 30.2551 54.3433 31.3193 54.3433C32.3835 54.3433 33.1979 53.5133 33.1979 52.4567C33.1979 51.4001 32.3732 50.5727 31.3193 50.5727Z" fill="#F0F0F0"/>
<path d="M58.7309 55.4172C57.1046 55.4172 55.7812 54.0899 55.7812 52.4567C55.7812 50.8235 57.1046 49.4971 58.7309 49.4971C60.3572 49.4971 61.6797 50.8235 61.6797 52.4567C61.6797 54.0899 60.3572 55.4172 58.7309 55.4172ZM58.7309 50.5727C57.6779 50.5727 56.854 51.4001 56.854 52.4567C56.854 53.5133 57.6779 54.3433 58.7309 54.3433C59.784 54.3433 60.6078 53.5133 60.6078 52.4567C60.6078 51.4001 59.784 50.5727 58.7309 50.5727Z" fill="#F0F0F0"/>
<path d="M28.1103 89.5967H16.9544C16.6583 89.5967 16.418 89.3563 16.418 89.0598C16.418 88.7633 16.6583 88.522 16.9544 88.522H28.1103C28.4064 88.522 28.6467 88.7624 28.6467 89.0598C28.6467 89.3571 28.4064 89.5967 28.1103 89.5967Z" fill="#F0F0F0"/>
<path d="M28.2617 101.712H16.8372C16.5411 101.712 16.3008 101.471 16.3008 101.173C16.3008 100.876 16.5411 100.635 16.8372 100.635H28.2617C28.5578 100.635 28.7981 100.876 28.7981 101.173C28.7981 101.471 28.5578 101.712 28.2617 101.712Z" fill="#F0F0F0"/>
<path d="M28.1613 123.027H23.7629C23.4669 123.027 23.2266 122.787 23.2266 122.489C23.2266 122.192 23.466 121.952 23.7629 121.952H28.1613C28.4574 121.952 28.6968 122.192 28.6968 122.489C28.6968 122.787 28.4565 123.027 28.1613 123.027Z" fill="#F0F0F0"/>
<path d="M28.2653 125.182C27.9692 125.182 27.7289 124.94 27.7289 124.643V86.4232H17.1626V117.591C17.1626 117.889 16.9223 118.129 16.6262 118.129C16.3301 118.129 16.0898 117.889 16.0898 117.591V85.8854C16.0898 85.5889 16.3293 85.3484 16.6262 85.3484H28.2645C28.5605 85.3484 28.8008 85.5889 28.8008 85.8854V124.644C28.8008 124.941 28.5605 125.183 28.2645 125.183L28.2653 125.182Z" fill="#F0F0F0"/>
<path d="M26.2215 97.6185H18.7122C18.4161 97.6185 18.1758 97.378 18.1758 97.0815V92.6662C18.1758 92.3689 18.4161 92.1284 18.7122 92.1284H26.2215C26.5176 92.1284 26.7579 92.3689 26.7579 92.6662V97.0815C26.7579 97.3789 26.5176 97.6185 26.2215 97.6185ZM19.2485 96.5437H25.6852V93.2023H19.2485V96.5437Z" fill="#F0F0F0"/>
<path d="M72.0787 89.5967H60.7083C60.4122 89.5967 60.1719 89.3563 60.1719 89.0598C60.1719 88.7633 60.4122 88.522 60.7083 88.522H72.0787C72.3748 88.522 72.6151 88.7624 72.6151 89.0598C72.6151 89.3571 72.3748 89.5967 72.0787 89.5967Z" fill="#F0F0F0"/>
<path d="M72.202 101.712H60.5637C60.2676 101.712 60.0273 101.471 60.0273 101.173C60.0273 100.876 60.2676 100.635 60.5637 100.635H72.202C72.498 100.635 72.7383 100.876 72.7383 101.173C72.7383 101.471 72.498 101.712 72.202 101.712Z" fill="#F0F0F0"/>
<path d="M66.1935 123.027H60.6692C60.3731 123.027 60.1328 122.787 60.1328 122.489C60.1328 122.192 60.3731 121.952 60.6692 121.952H66.1935C66.4896 121.952 66.7299 122.192 66.7299 122.489C66.7299 122.787 66.4896 123.027 66.1935 123.027Z" fill="#F0F0F0"/>
<path d="M60.552 125.773C60.2559 125.773 60.0156 125.533 60.0156 125.235V85.8856C60.0156 85.5891 60.2559 85.3486 60.552 85.3486H72.1902C72.4863 85.3486 72.7266 85.5891 72.7266 85.8856V118.615C72.7266 118.913 72.4863 119.152 72.1902 119.152C71.8942 119.152 71.6539 118.913 71.6539 118.615V86.4234H61.0875V125.235C61.0875 125.532 60.8472 125.772 60.5511 125.772L60.552 125.773Z" fill="#F0F0F0"/>
<path d="M70.1035 97.6185H62.595C62.2989 97.6185 62.0586 97.378 62.0586 97.0815V92.6662C62.0586 92.3689 62.2989 92.1284 62.595 92.1284H70.1035C70.3996 92.1284 70.6399 92.3689 70.6399 92.6662V97.0815C70.6399 97.3789 70.3996 97.6185 70.1035 97.6185ZM63.1314 96.5437H69.568V93.2023H63.1314V96.5437Z" fill="#F0F0F0"/>
<path d="M46.251 80.8792H42.9254C42.6551 80.8792 42.4268 80.6783 42.3942 80.4086L41.7505 75.24C41.7308 75.0866 41.778 74.9332 41.8801 74.8168C41.9822 74.7014 42.1281 74.6367 42.2817 74.6367H46.8955C47.0491 74.6367 47.195 74.7022 47.298 74.8168C47.4001 74.9341 47.4473 75.0875 47.4276 75.24L46.7831 80.4086C46.7504 80.6783 46.5222 80.8792 46.2518 80.8792H46.251ZM43.3983 79.8044H45.779L46.2879 75.7115H42.8885L43.3983 79.8044Z" fill="#F0F0F0"/>
<path d="M57.7652 126.633C57.4692 126.633 57.2289 126.393 57.2289 126.095V88.5743C57.2289 81.4493 51.4788 75.6533 44.4106 75.6533C37.3423 75.6533 31.5923 81.4493 31.5923 88.5743V125.612C31.5923 125.908 31.352 126.149 31.0559 126.149C30.7598 126.149 30.5195 125.908 30.5195 125.612V88.5743C30.5195 80.8572 36.751 74.5786 44.4106 74.5786C52.0701 74.5786 58.3016 80.8572 58.3016 88.5743V126.095C58.3016 126.393 58.0613 126.633 57.7652 126.633Z" fill="#F0F0F0"/>
<path d="M54.8677 127.281C54.5716 127.281 54.3313 127.04 54.3313 126.744V89.5442C54.3313 84.8617 51.016 80.7834 46.4469 79.8457C46.1568 79.7853 45.9706 79.5001 46.0298 79.2096C46.0882 78.9183 46.3671 78.7322 46.6623 78.789C51.7275 79.8293 55.4041 84.3506 55.4041 89.5433V126.743C55.4041 127.04 55.1638 127.28 54.8677 127.28V127.281ZM33.9504 127.119C33.6544 127.119 33.4141 126.878 33.4141 126.581V89.5442C33.4141 84.2687 37.3404 79.5983 42.5455 78.6804C42.8269 78.6279 43.1153 78.8226 43.1659 79.1183C43.2174 79.4113 43.0226 79.6897 42.7308 79.7405C38.0295 80.5705 34.486 84.7833 34.486 89.5442V126.581C34.486 126.878 34.2457 127.119 33.9496 127.119H33.9504Z" fill="#F0F0F0"/>
</svg>
